solid GamePi_2_v1.0
facet normal -1.0 0.0 0.0
  outer loop
    vertex -168.8966610039295 96.93042064691936 0.9999999999999999
    vertex -168.8966610039295 84.93042064691936 0.0
    vertex -168.8966610039295 84.93042064691936 0.9999999999999999
  endloop
endfacet
facet normal -1.0 0.0 0.0
  outer loop
    vertex -168.8966610039295 84.93042064691936 0.0
    vertex -168.8966610039295 96.93042064691936 0.9999999999999999
    vertex -168.8966610039295 96.93042064691936 0.0
  endloop
endfacet
facet normal 0.0 1.0 0.0
  outer loop
    vertex -202.89666100392955 84.93042064691936 0.9999999999999999
    vertex -168.8966610039295 84.93042064691936 0.0
    vertex -202.89666100392955 84.93042064691936 0.0
  endloop
endfacet
facet normal 0.0 1.0 0.0
  outer loop
    vertex -168.8966610039295 84.93042064691936 0.0
    vertex -202.89666100392955 84.93042064691936 0.9999999999999999
    vertex -168.8966610039295 84.93042064691936 0.9999999999999999
  endloop
endfacet
facet normal 0.0 0.0 -1.0
  outer loop
    vertex -246.89666100392955 100.93042064691936 0.0
    vertex -202.89666100392955 96.93042064691936 0.0
    vertex -246.89666100392955 78.93042064691936 0.0
  endloop
endfacet
facet normal 0.0 0.0 -1.0
  outer loop
    vertex -202.89666100392955 96.93042064691936 0.0
    vertex -246.89666100392955 100.93042064691936 0.0
    vertex -160.8966609969595 100.93042064691936 0.0
  endloop
endfacet
facet normal 0.0 0.0 -1.0
  outer loop
    vertex -202.89666100392955 96.93042064691936 0.0
    vertex -160.8966609969595 100.93042064691936 0.0
    vertex -168.8966610039295 96.93042064691936 0.0
  endloop
endfacet
facet normal 0.0 0.0 -1.0
  outer loop
    vertex -168.8966610039295 96.93042064691936 0.0
    vertex -160.8966609969595 100.93042064691936 0.0
    vertex -168.8966610039295 84.93042064691936 0.0
  endloop
endfacet
facet normal 0.0 0.0 -1.0
  outer loop
    vertex -168.8966610039295 84.93042064691936 0.0
    vertex -160.8966609969595 100.93042064691936 0.0
    vertex -160.89666100392955 78.93042064691936 0.0
  endloop
endfacet
facet normal 0.0 0.0 -1.0
  outer loop
    vertex -246.89666100392955 78.93042064691936 0.0
    vertex -202.89666100392955 84.93042064691936 0.0
    vertex -160.89666100392955 78.93042064691936 0.0
  endloop
endfacet
facet normal 0.0 0.0 -1.0
  outer loop
    vertex -202.89666100392955 84.93042064691936 0.0
    vertex -246.89666100392955 78.93042064691936 0.0
    vertex -202.89666100392955 96.93042064691936 0.0
  endloop
endfacet
facet normal 0.0 0.0 -1.0
  outer loop
    vertex -160.89666100392955 78.93042064691936 0.0
    vertex -202.89666100392955 84.93042064691936 0.0
    vertex -168.8966610039295 84.93042064691936 0.0
  endloop
endfacet
facet normal -1.0 0.0 0.0
  outer loop
    vertex -246.89666100392955 100.93042064691936 0.9999999999999999
    vertex -246.89666100392955 78.93042064691936 0.0
    vertex -246.89666100392955 78.93042064691936 0.9999999999999999
  endloop
endfacet
facet normal -1.0 0.0 0.0
  outer loop
    vertex -246.89666100392955 78.93042064691936 0.0
    vertex -246.89666100392955 100.93042064691936 0.9999999999999999
    vertex -246.89666100392955 100.93042064691936 0.0
  endloop
endfacet
facet normal -0.0 -1.0 -0.0
  outer loop
    vertex -168.8966610039295 96.93042064691936 0.9999999999999999
    vertex -202.89666100392955 96.93042064691936 0.0
    vertex -168.8966610039295 96.93042064691936 0.0
  endloop
endfacet
facet normal -0.0 -1.0 -0.0
  outer loop
    vertex -202.89666100392955 96.93042064691936 0.0
    vertex -168.8966610039295 96.93042064691936 0.9999999999999999
    vertex -202.89666100392955 96.93042064691936 0.9999999999999999
  endloop
endfacet
facet normal 1.0 0.0 0.0
  outer loop
    vertex -202.89666100392955 96.93042064691936 0.0
    vertex -202.89666100392955 84.93042064691936 0.9999999999999999
    vertex -202.89666100392955 84.93042064691936 0.0
  endloop
endfacet
facet normal 1.0 0.0 0.0
  outer loop
    vertex -202.89666100392955 84.93042064691936 0.9999999999999999
    vertex -202.89666100392955 96.93042064691936 0.0
    vertex -202.89666100392955 96.93042064691936 0.9999999999999999
  endloop
endfacet
facet normal -0.0 -1.0 -0.0
  outer loop
    vertex -160.89666100392955 78.93042064691936 0.9999999999999999
    vertex -246.89666100392955 78.93042064691936 0.0
    vertex -160.89666100392955 78.93042064691936 0.0
  endloop
endfacet
facet normal -0.0 -1.0 -0.0
  outer loop
    vertex -246.89666100392955 78.93042064691936 0.0
    vertex -160.89666100392955 78.93042064691936 0.9999999999999999
    vertex -246.89666100392955 78.93042064691936 0.9999999999999999
  endloop
endfacet
facet normal -3.993071081590622e-06 -1.364011681988643e-05 0.9999999998990015
  outer loop
    vertex -246.89666100392955 78.93042064691936 0.9999999999999999
    vertex -245.89666100392955 79.73042064691937 0.9999999999999977
    vertex -246.89666100392955 100.93042064691936 0.9999999999999999
  endloop
endfacet
facet normal -3.993071081590622e-06 -1.364011681988643e-05 0.9999999998990015
  outer loop
    vertex -245.89666100392955 79.73042064691937 0.9999999999999977
    vertex -246.89666100392955 78.93042064691936 0.9999999999999999
    vertex -160.89666100392955 78.93042064691936 0.9999999999999999
  endloop
endfacet
facet normal -3.993071081590622e-06 -1.364011681988643e-05 0.9999999998990015
  outer loop
    vertex -245.89666100392955 79.73042064691937 0.9999999999999977
    vertex -160.89666100392955 78.93042064691936 0.9999999999999999
    vertex -204.1069360039295 79.73042064691933 0.9999999999997287
  endloop
endfacet
facet normal -3.993071081590622e-06 -1.364011681988643e-05 0.9999999998990015
  outer loop
    vertex -204.1069360039295 79.73042064691933 0.9999999999997287
    vertex -160.89666100392955 78.93042064691936 0.9999999999999999
    vertex -202.89666100392955 84.93042064691936 0.9999999999999999
  endloop
endfacet
facet normal -3.993071081590622e-06 -1.364011681988643e-05 0.9999999998990015
  outer loop
    vertex -204.1069360039295 79.73042064691933 0.9999999999997287
    vertex -202.89666100392955 84.93042064691936 0.9999999999999999
    vertex -204.10693600392946 100.93042064691936 1.001563394717092
  endloop
endfacet
facet normal -3.993071081590622e-06 -1.364011681988643e-05 0.9999999998990015
  outer loop
    vertex -202.89666100392955 84.93042064691936 0.9999999999999999
    vertex -160.89666100392955 78.93042064691936 0.9999999999999999
    vertex -168.8966610039295 84.93042064691936 0.9999999999999999
  endloop
endfacet
facet normal -3.993071081590622e-06 -1.364011681988643e-05 0.9999999998990015
  outer loop
    vertex -168.8966610039295 84.93042064691936 0.9999999999999999
    vertex -160.89666100392955 78.93042064691936 0.9999999999999999
    vertex -168.8966610039295 96.93042064691936 0.9999999999999999
  endloop
endfacet
facet normal -3.993071081590622e-06 -1.364011681988643e-05 0.9999999998990015
  outer loop
    vertex -204.10693600392946 100.93042064691936 1.001563394717092
    vertex -202.89666100392955 96.93042064691936 0.9999999999999999
    vertex -160.8966609969595 100.93042064691936 1.0003442250423233
  endloop
endfacet
facet normal -3.993071081590622e-06 -1.364011681988643e-05 0.9999999998990015
  outer loop
    vertex -202.89666100392955 96.93042064691936 0.9999999999999999
    vertex -204.10693600392946 100.93042064691936 1.001563394717092
    vertex -202.89666100392955 84.93042064691936 0.9999999999999999
  endloop
endfacet
facet normal -3.993071081590622e-06 -1.364011681988643e-05 0.9999999998990015
  outer loop
    vertex -160.8966609969595 100.93042064691936 1.0003442250423233
    vertex -202.89666100392955 96.93042064691936 0.9999999999999999
    vertex -168.8966610039295 96.93042064691936 0.9999999999999999
  endloop
endfacet
facet normal -3.993071081590622e-06 -1.364011681988643e-05 0.9999999998990015
  outer loop
    vertex -160.8966609969595 100.93042064691936 1.0003442250423233
    vertex -168.8966610039295 96.93042064691936 0.9999999999999999
    vertex -160.89666100392955 78.93042064691936 0.9999999999999999
  endloop
endfacet
facet normal -3.993071081590622e-06 -1.364011681988643e-05 0.9999999998990015
  outer loop
    vertex -208.3069360039296 80.93042064691936 0.9999999999999909
    vertex -244.69666100392953 82.93042064691936 0.9999999999999978
    vertex -244.69666100392953 80.93042064691936 0.9999999999999977
  endloop
endfacet
facet normal -3.993071081590622e-06 -1.364011681988643e-05 0.9999999998990015
  outer loop
    vertex -244.69666100392953 82.93042064691936 0.9999999999999978
    vertex -208.3069360039296 80.93042064691936 0.9999999999999909
    vertex -244.69666100392953 97.73042064691937 0.9999999999999999
  endloop
endfacet
facet normal -3.993071081590622e-06 -1.364011681988643e-05 0.9999999998990015
  outer loop
    vertex -244.69666100392953 97.73042064691937 0.9999999999999999
    vertex -208.3069360039296 80.93042064691936 0.9999999999999909
    vertex -244.69666100392953 99.73042064691936 0.9999999999999999
  endloop
endfacet
facet normal -3.993071081590622e-06 -1.364011681988643e-05 0.9999999998990015
  outer loop
    vertex -244.69666100392953 99.73042064691936 0.9999999999999999
    vertex -208.3069360039296 80.93042064691936 0.9999999999999909
    vertex -208.3069360039296 99.73042064691936 0.9999999999999932
  endloop
endfacet
facet normal -3.993071081590622e-06 -1.364011681988643e-05 0.9999999998990015
  outer loop
    vertex -244.69666100392953 82.93042064691936 0.9999999999999978
    vertex -245.89666100392955 97.73042064691937 1.0000000000000007
    vertex -245.89666100392955 82.93042064691936 0.9999999999999978
  endloop
endfacet
facet normal -3.993071081590622e-06 -1.364011681988643e-05 0.9999999998990015
  outer loop
    vertex -245.89666100392955 97.73042064691937 1.0000000000000007
    vertex -244.69666100392953 82.93042064691936 0.9999999999999978
    vertex -244.69666100392953 97.73042064691937 0.9999999999999999
  endloop
endfacet
facet normal -3.993071081590622e-06 -1.364011681988643e-05 0.9999999998990015
  outer loop
    vertex -245.89666100392955 79.73042064691937 0.9999999999999977
    vertex -245.89666100392955 100.93042064691936 0.9999999999999999
    vertex -246.89666100392955 100.93042064691936 0.9999999999999999
  endloop
endfacet
facet normal -3.993071081590622e-06 -1.364011681988643e-05 0.9999999998990015
  outer loop
    vertex -245.89666100392955 100.93042064691936 0.9999999999999999
    vertex -245.89666100392955 79.73042064691937 0.9999999999999977
    vertex -245.89666100392955 82.93042064691936 0.9999999999999978
  endloop
endfacet
facet normal -3.993071081590622e-06 -1.364011681988643e-05 0.9999999998990015
  outer loop
    vertex -245.89666100392955 100.93042064691936 0.9999999999999999
    vertex -245.89666100392955 82.93042064691936 0.9999999999999978
    vertex -245.89666100392955 97.73042064691937 1.0000000000000007
  endloop
endfacet
facet normal -1.0 0.0 0.0
  outer loop
    vertex -208.3069360039296 99.73042064691936 2.999999999999993
    vertex -208.3069360039296 80.93042064691936 0.9999999999999909
    vertex -208.3069360039296 80.93042064691936 2.999999999999991
  endloop
endfacet
facet normal -1.0 0.0 0.0
  outer loop
    vertex -208.3069360039296 80.93042064691936 0.9999999999999909
    vertex -208.3069360039296 99.73042064691936 2.999999999999993
    vertex -208.3069360039296 99.73042064691936 0.9999999999999932
  endloop
endfacet
facet normal 0.0 1.0 0.0
  outer loop
    vertex -244.69666100392953 80.93042064691936 0.9999999999999977
    vertex -208.3069360039296 80.93042064691936 2.999999999999991
    vertex -208.3069360039296 80.93042064691936 0.9999999999999909
  endloop
endfacet
facet normal 0.0 1.0 0.0
  outer loop
    vertex -208.3069360039296 80.93042064691936 2.999999999999991
    vertex -244.69666100392953 80.93042064691936 0.9999999999999977
    vertex -244.69666100392953 80.93042064691936 2.9999999999999973
  endloop
endfacet
facet normal 1.0 0.0 0.0
  outer loop
    vertex -244.69666100392953 82.93042064691936 0.9999999999999978
    vertex -244.69666100392953 80.93042064691936 2.9999999999999973
    vertex -244.69666100392953 80.93042064691936 0.9999999999999977
  endloop
endfacet
facet normal 1.0 0.0 0.0
  outer loop
    vertex -244.69666100392953 80.93042064691936 2.9999999999999973
    vertex -244.69666100392953 82.93042064691936 0.9999999999999978
    vertex -244.69666100392953 82.93042064691936 2.9999999999999973
  endloop
endfacet
facet normal 0.0 -1.0 0.0
  outer loop
    vertex -208.3069360039296 99.73042064691936 2.999999999999993
    vertex -244.69666100392953 99.73042064691936 0.9999999999999999
    vertex -208.3069360039296 99.73042064691936 0.9999999999999932
  endloop
endfacet
facet normal 0.0 -1.0 0.0
  outer loop
    vertex -244.69666100392953 99.73042064691936 0.9999999999999999
    vertex -208.3069360039296 99.73042064691936 2.999999999999993
    vertex -244.69666100392953 99.73042064691936 3.0
  endloop
endfacet
facet normal -1.0 0.0 0.0
  outer loop
    vertex -245.89666100392955 100.93042064691936 3.0
    vertex -245.89666100392955 97.73042064691937 1.0000000000000007
    vertex -245.89666100392955 97.73042064691937 3.0
  endloop
endfacet
facet normal -1.0 0.0 0.0
  outer loop
    vertex -245.89666100392955 97.73042064691937 1.0000000000000007
    vertex -245.89666100392955 100.93042064691936 3.0
    vertex -245.89666100392955 100.93042064691936 0.9999999999999999
  endloop
endfacet
facet normal 0.0 1.0 0.0
  outer loop
    vertex -245.89666100392955 82.93042064691936 2.9999999999999973
    vertex -244.69666100392953 82.93042064691936 0.9999999999999978
    vertex -245.89666100392955 82.93042064691936 0.9999999999999978
  endloop
endfacet
facet normal 0.0 1.0 0.0
  outer loop
    vertex -244.69666100392953 82.93042064691936 0.9999999999999978
    vertex -245.89666100392955 82.93042064691936 2.9999999999999973
    vertex -244.69666100392953 82.93042064691936 2.9999999999999973
  endloop
endfacet
facet normal 0.0 -1.0 0.0
  outer loop
    vertex -244.69666100392953 97.73042064691937 2.9999999999999996
    vertex -245.89666100392955 97.73042064691937 1.0000000000000007
    vertex -244.69666100392953 97.73042064691937 0.9999999999999999
  endloop
endfacet
facet normal 0.0 -1.0 0.0
  outer loop
    vertex -245.89666100392955 97.73042064691937 1.0000000000000007
    vertex -244.69666100392953 97.73042064691937 2.9999999999999996
    vertex -245.89666100392955 97.73042064691937 3.0
  endloop
endfacet
facet normal -1.0 0.0 0.0
  outer loop
    vertex -245.89666100392955 82.93042064691936 2.9999999999999973
    vertex -245.89666100392955 79.73042064691937 0.9999999999999977
    vertex -245.89666100392955 79.73042064691937 2.9999999999999973
  endloop
endfacet
facet normal -1.0 0.0 0.0
  outer loop
    vertex -245.89666100392955 79.73042064691937 0.9999999999999977
    vertex -245.89666100392955 82.93042064691936 2.9999999999999973
    vertex -245.89666100392955 82.93042064691936 0.9999999999999978
  endloop
endfacet
facet normal 1.0 0.0 0.0
  outer loop
    vertex -244.69666100392953 99.73042064691936 0.9999999999999999
    vertex -244.69666100392953 97.73042064691937 2.9999999999999996
    vertex -244.69666100392953 97.73042064691937 0.9999999999999999
  endloop
endfacet
facet normal 1.0 0.0 0.0
  outer loop
    vertex -244.69666100392953 97.73042064691937 2.9999999999999996
    vertex -244.69666100392953 99.73042064691936 0.9999999999999999
    vertex -244.69666100392953 99.73042064691936 3.0
  endloop
endfacet
facet normal -2.3249123283562214e-16 -1.0 5.6429831046078e-15
  outer loop
    vertex -204.1069360039295 79.73042064691937 3.000000000000519
    vertex -245.89666100392955 79.73042064691937 0.9999999999999977
    vertex -204.1069360039295 79.73042064691933 0.9999999999997287
  endloop
endfacet
facet normal -2.3249123283562214e-16 -1.0 5.6429831046078e-15
  outer loop
    vertex -245.89666100392955 79.73042064691937 0.9999999999999977
    vertex -204.1069360039295 79.73042064691937 3.000000000000519
    vertex -245.89666100392955 79.73042064691937 2.9999999999999973
  endloop
endfacet
facet normal -2.3249123283562214e-16 -1.0 5.6429831046078e-15
  outer loop
    vertex -245.89666100392955 79.73042064691937 2.9999999999999973
    vertex -204.1069360039295 79.73042064691937 3.000000000000519
    vertex -207.10693600392958 79.73042064691937 3.0000000000005187
  endloop
endfacet
facet normal -1.2769685611228019e-15 4.785970071277522e-15 1.0
  outer loop
    vertex -245.89666100392955 79.73042064691937 2.9999999999999973
    vertex -244.69666100392953 80.93042064691936 2.9999999999999973
    vertex -245.89666100392955 82.93042064691936 2.9999999999999973
  endloop
endfacet
facet normal -1.2769685611228019e-15 4.785970071277522e-15 1.0
  outer loop
    vertex -244.69666100392953 80.93042064691936 2.9999999999999973
    vertex -245.89666100392955 79.73042064691937 2.9999999999999973
    vertex -207.10693600392958 79.73042064691937 3.0000000000005187
  endloop
endfacet
facet normal -1.2769685611228019e-15 4.785970071277522e-15 1.0
  outer loop
    vertex -244.69666100392953 80.93042064691936 2.9999999999999973
    vertex -207.10693600392958 79.73042064691937 3.0000000000005187
    vertex -208.3069360039296 80.93042064691936 2.999999999999991
  endloop
endfacet
facet normal -1.2769685611228019e-15 4.785970071277522e-15 1.0
  outer loop
    vertex -208.3069360039296 80.93042064691936 2.999999999999991
    vertex -207.10693600392958 79.73042064691937 3.0000000000005187
    vertex -208.3069360039296 99.73042064691936 2.999999999999993
  endloop
endfacet
facet normal -1.2769685611228019e-15 4.785970071277522e-15 1.0
  outer loop
    vertex -208.3069360039296 99.73042064691936 2.999999999999993
    vertex -207.10693600392958 79.73042064691937 3.0000000000005187
    vertex -207.10693600392966 84.85799973036288 3.0000000000002665
  endloop
endfacet
facet normal -1.2769685611228019e-15 4.785970071277522e-15 1.0
  outer loop
    vertex -204.10693600392955 84.85799973036288 2.999999999999725
    vertex -207.10693600392966 95.80350558843404 3.0000000000002665
    vertex -207.10693600392966 84.85799973036288 3.0000000000002665
  endloop
endfacet
facet normal -1.2769685611228019e-15 4.785970071277522e-15 1.0
  outer loop
    vertex -207.10693600392966 95.80350558843404 3.0000000000002665
    vertex -204.10693600392955 84.85799973036288 2.999999999999725
    vertex -204.10693600392955 95.80350558843404 2.999999999999725
  endloop
endfacet
facet normal -1.2769685611228019e-15 4.785970071277522e-15 1.0
  outer loop
    vertex -244.69666100392953 97.73042064691937 2.9999999999999996
    vertex -245.89666100392955 100.93042064691936 3.0
    vertex -245.89666100392955 97.73042064691937 3.0
  endloop
endfacet
facet normal -1.2769685611228019e-15 4.785970071277522e-15 1.0
  outer loop
    vertex -245.89666100392955 100.93042064691936 3.0
    vertex -244.69666100392953 97.73042064691937 2.9999999999999996
    vertex -244.69666100392953 99.73042064691936 3.0
  endloop
endfacet
facet normal -1.2769685611228019e-15 4.785970071277522e-15 1.0
  outer loop
    vertex -245.89666100392955 100.93042064691936 3.0
    vertex -244.69666100392953 99.73042064691936 3.0
    vertex -207.10693600392958 100.93042064691936 2.9999999999999933
  endloop
endfacet
facet normal -1.2769685611228019e-15 4.785970071277522e-15 1.0
  outer loop
    vertex -207.10693600392958 100.93042064691936 2.9999999999999933
    vertex -244.69666100392953 99.73042064691936 3.0
    vertex -208.3069360039296 99.73042064691936 2.999999999999993
  endloop
endfacet
facet normal -1.2769685611228019e-15 4.785970071277522e-15 1.0
  outer loop
    vertex -207.10693600392958 100.93042064691936 2.9999999999999933
    vertex -208.3069360039296 99.73042064691936 2.999999999999993
    vertex -207.10693600392966 95.80350558843404 3.0000000000002665
  endloop
endfacet
facet normal -1.2769685611228019e-15 4.785970071277522e-15 1.0
  outer loop
    vertex -207.10693600392966 95.80350558843404 3.0000000000002665
    vertex -208.3069360039296 99.73042064691936 2.999999999999993
    vertex -207.10693600392966 84.85799973036288 3.0000000000002665
  endloop
endfacet
facet normal -1.2769685611228019e-15 4.785970071277522e-15 1.0
  outer loop
    vertex -244.69666100392953 82.93042064691936 2.9999999999999973
    vertex -245.89666100392955 82.93042064691936 2.9999999999999973
    vertex -244.69666100392953 80.93042064691936 2.9999999999999973
  endloop
endfacet
facet normal 0.0 1.0 0.0
  outer loop
    vertex -246.89666100392955 100.93042064691936 0.9999999999999999
    vertex -160.8966609969595 100.93042064691936 0.0
    vertex -246.89666100392955 100.93042064691936 0.0
  endloop
endfacet
facet normal 0.0 1.0 0.0
  outer loop
    vertex -160.8966609969595 100.93042064691936 0.0
    vertex -246.89666100392955 100.93042064691936 0.9999999999999999
    vertex -245.89666100392955 100.93042064691936 0.9999999999999999
  endloop
endfacet
facet normal 0.0 1.0 0.0
  outer loop
    vertex -160.8966609969595 100.93042064691936 0.0
    vertex -245.89666100392955 100.93042064691936 0.9999999999999999
    vertex -160.8966609969595 100.93042064691936 1.0003442250423233
  endloop
endfacet
facet normal 0.0 1.0 0.0
  outer loop
    vertex -160.8966609969595 100.93042064691936 1.0003442250423233
    vertex -245.89666100392955 100.93042064691936 0.9999999999999999
    vertex -204.10693600392946 100.93042064691936 1.001563394717092
  endloop
endfacet
facet normal 0.0 1.0 0.0
  outer loop
    vertex -204.10693600392946 100.93042064691936 1.001563394717092
    vertex -245.89666100392955 100.93042064691936 0.9999999999999999
    vertex -245.89666100392955 100.93042064691936 3.0
  endloop
endfacet
facet normal 0.0 1.0 0.0
  outer loop
    vertex -204.10693600392946 100.93042064691936 1.001563394717092
    vertex -245.89666100392955 100.93042064691936 3.0
    vertex -204.10693600392946 100.93042064691936 2.9999999999996443
  endloop
endfacet
facet normal 0.0 1.0 0.0
  outer loop
    vertex -204.10693600392946 100.93042064691936 2.9999999999996443
    vertex -245.89666100392955 100.93042064691936 3.0
    vertex -207.10693600392958 100.93042064691936 2.9999999999999933
  endloop
endfacet
facet normal -1.30035307541134e-13 0.6593458151000541 -0.7518398074789904
  outer loop
    vertex -207.10693600392926 86.03171544333672 5.380060020873957
    vertex -204.10693600392918 85.73667938680322 5.121320343559373
    vertex -207.10693600392932 85.73667938680322 5.1213203435598915
  endloop
endfacet
facet normal -1.30035307541134e-13 0.6593458151000541 -0.7518398074789904
  outer loop
    vertex -204.10693600392918 85.73667938680322 5.121320343559373
    vertex -207.10693600392926 86.03171544333672 5.380060020873957
    vertex -204.10693600392915 86.03171544333672 5.380060020873438
  endloop
endfacet
facet normal -1.5849385892645974e-13 0.44228869021898426 -0.8968727415326968
  outer loop
    vertex -207.10693600392918 86.7099494332676 5.771638597534126
    vertex -204.1069360039291 86.35799973036285 5.598076211353049
    vertex -207.10693600392923 86.35799973036285 5.598076211353567
  endloop
endfacet
facet normal -1.5849385892645974e-13 0.44228869021898426 -0.8968727415326968
  outer loop
    vertex -204.1069360039291 86.35799973036285 5.598076211353049
    vertex -207.10693600392918 86.7099494332676 5.771638597534126
    vertex -204.10693600392904 86.7099494332676 5.771638597533584
  endloop
endfacet
facet normal -7.981897964366978e-14 0.896872741532674 -0.4422886902190301
  outer loop
    vertex -207.1069360039295 85.08636113282901 4.1480502970955335
    vertex -204.10693600392926 85.25992351900956 4.499999999999723
    vertex -204.10693600392932 85.08636113282901 4.148050297094993
  endloop
endfacet
facet normal -7.981897964366978e-14 0.896872741532674 -0.4422886902190301
  outer loop
    vertex -204.10693600392926 85.25992351900956 4.499999999999723
    vertex -207.1069360039295 85.08636113282901 4.1480502970955335
    vertex -207.1069360039294 85.25992351900956 4.500000000000264
  endloop
endfacet
facet normal -1.4381117045919164e-13 0.5555702330196355 -0.8314696123025231
  outer loop
    vertex -207.10693600392923 86.35799973036285 5.598076211353567
    vertex -204.10693600392915 86.03171544333672 5.380060020873438
    vertex -207.10693600392926 86.03171544333672 5.380060020873957
  endloop
endfacet
facet normal -1.4381117045919164e-13 0.5555702330196355 -0.8314696123025231
  outer loop
    vertex -204.10693600392915 86.03171544333672 5.380060020873438
    vertex -207.10693600392923 86.35799973036285 5.598076211353567
    vertex -204.1069360039291 86.35799973036285 5.598076211353049
  endloop
endfacet
facet normal -1.7295558873586267e-13 0.004808827635504455 -0.9999884375215405
  outer loop
    vertex -204.106936003929 92.80350558843405 5.999999999999742
    vertex -207.10693600392918 87.4664211537027 5.974334584121686
    vertex -207.10693600392918 92.80350558843405 6.000000000000261
  endloop
endfacet
facet normal -1.7295558873586267e-13 0.004808827635504455 -0.9999884375215405
  outer loop
    vertex -207.10693600392918 87.4664211537027 5.974334584121686
    vertex -204.106936003929 92.80350558843405 5.999999999999742
    vertex -204.106936003929 87.4664211537027 5.974334584121167
  endloop
endfacet
facet normal -1.7090041297266442e-13 0.32143946530316275 -0.9469301294951052
  outer loop
    vertex -204.106936003929 87.08154259505531 5.89777747886693
    vertex -207.10693600392918 86.7099494332676 5.771638597534126
    vertex -207.10693600392918 87.08154259505531 5.8977774788674715
  endloop
endfacet
facet normal -1.7090041297266442e-13 0.32143946530316275 -0.9469301294951052
  outer loop
    vertex -207.10693600392918 86.7099494332676 5.771638597534126
    vertex -204.106936003929 87.08154259505531 5.89777747886693
    vertex -204.10693600392904 86.7099494332676 5.771638597533584
  endloop
endfacet
facet normal -7.81586735499427e-14 -0.8968727415326798 -0.4422886902190188
  outer loop
    vertex -204.10693600392926 95.40158179978734 4.499999999999745
    vertex -207.1069360039295 95.5751441859679 4.1480502970955335
    vertex -204.10693600392932 95.5751441859679 4.148050297094993
  endloop
endfacet
facet normal -7.81586735499427e-14 -0.8968727415326798 -0.4422886902190188
  outer loop
    vertex -207.1069360039295 95.5751441859679 4.1480502970955335
    vertex -204.10693600392926 95.40158179978734 4.499999999999745
    vertex -207.1069360039294 95.40158179978734 4.500000000000264
  endloop
endfacet
facet normal 7.519910620127739e-14 0.0 1.0
  outer loop
    vertex -204.10693600392864 87.70837266622584 7.999792343950285
    vertex -207.10693600392864 92.90486155852675 7.999792343950511
    vertex -207.10693600392864 87.70837266622584 7.999792343950533
  endloop
endfacet
facet normal 7.519910620127739e-14 0.0 1.0
  outer loop
    vertex -207.10693600392864 92.90486155852675 7.999792343950511
    vertex -204.10693600392864 87.70837266622584 7.999792343950285
    vertex -204.10693600392864 92.90486155852675 7.999792343950308
  endloop
endfacet
facet normal 7.249494423493579e-14 -0.5953647623634182 0.803455536875533
  outer loop
    vertex -204.10693600392887 84.40245273242967 6.79979234395031
    vertex -207.1069360039288 84.71838624275524 7.033900730369931
    vertex -207.10693600392887 84.40245273242967 6.799792343950581
  endloop
endfacet
facet normal 7.249494423493579e-14 -0.5953647623634182 0.803455536875533
  outer loop
    vertex -207.1069360039288 84.71838624275524 7.033900730369931
    vertex -204.10693600392887 84.40245273242967 6.79979234395031
    vertex -204.1069360039288 84.71838624275524 7.03390073036966
  endloop
endfacet
facet normal -9.608991769140608e-14 -0.8314696123025408 -0.5555702330196088
  outer loop
    vertex -204.10693600392923 95.18356560930773 4.8262842870259
    vertex -207.1069360039294 95.40158179978734 4.500000000000264
    vertex -204.10693600392926 95.40158179978734 4.499999999999745
  endloop
endfacet
facet normal -9.608991769140608e-14 -0.8314696123025408 -0.5555702330196088
  outer loop
    vertex -207.1069360039294 95.40158179978734 4.500000000000264
    vertex -204.10693600392923 95.18356560930773 4.8262842870259
    vertex -207.10693600392935 95.18356560930773 4.826284287026419
  endloop
endfacet
facet normal -1.5849385892645588e-13 -0.44228869021902983 -0.8968727415326743
  outer loop
    vertex -204.1069360039291 94.30350558843402 5.598076211353049
    vertex -207.10693600392918 93.95155588552932 5.771638597534126
    vertex -207.10693600392923 94.30350558843402 5.598076211353567
  endloop
endfacet
facet normal -1.5849385892645588e-13 -0.44228869021902983 -0.8968727415326743
  outer loop
    vertex -207.10693600392918 93.95155588552932 5.771638597534126
    vertex -204.1069360039291 94.30350558843402 5.598076211353049
    vertex -204.10693600392904 93.95155588552932 5.771638597533584
  endloop
endfacet
facet normal 7.860189334152411e-14 -0.2362717862716584 0.9716870087697992
  outer loop
    vertex -204.1069360039287 86.42716948736388 7.797555878713355
    vertex -207.10693600392864 86.88322149610457 7.908447782964084
    vertex -207.1069360039287 86.42716948736393 7.797555878713603
  endloop
endfacet
facet normal 7.860189334152411e-14 -0.2362717862716584 0.9716870087697992
  outer loop
    vertex -207.10693600392864 86.88322149610457 7.908447782964084
    vertex -204.1069360039287 86.42716948736388 7.797555878713355
    vertex -204.10693600392864 86.88322149610457 7.908447782963835
  endloop
endfacet
facet normal 7.757228353307576e-14 -0.44203342153275504 0.8969985809621139
  outer loop
    vertex -204.10693600392878 85.09407052053854 7.259012462788417
    vertex -207.10693600392872 85.5150682296704 7.466476623574085
    vertex -207.10693600392878 85.09407052053854 7.259012462788688
  endloop
endfacet
facet normal 7.757228353307576e-14 -0.44203342153275504 0.8969985809621139
  outer loop
    vertex -207.10693600392872 85.5150682296704 7.466476623574085
    vertex -204.10693600392878 85.09407052053854 7.259012462788417
    vertex -204.10693600392872 85.5150682296704 7.466476623573836
  endloop
endfacet
facet normal -1.1403944897218906e-13 -0.7518398074789939 -0.6593458151000501
  outer loop
    vertex -204.10693600392918 94.9248259319937 5.121320343559373
    vertex -207.10693600392935 95.18356560930773 4.826284287026419
    vertex -204.10693600392923 95.18356560930773 4.8262842870259
  endloop
endfacet
facet normal -1.1403944897218906e-13 -0.7518398074789939 -0.6593458151000501
  outer loop
    vertex -207.10693600392935 95.18356560930773 4.826284287026419
    vertex -204.10693600392918 94.9248259319937 5.121320343559373
    vertex -207.10693600392932 94.9248259319937 5.1213203435598915
  endloop
endfacet
facet normal -1.7090041297266442e-13 -0.32143946530316275 -0.9469301294951052
  outer loop
    vertex -204.10693600392904 93.95155588552932 5.771638597533584
    vertex -207.10693600392918 93.5799627237416 5.8977774788674715
    vertex -207.10693600392918 93.95155588552932 5.771638597534126
  endloop
endfacet
facet normal -1.7090041297266442e-13 -0.32143946530316275 -0.9469301294951052
  outer loop
    vertex -207.10693600392918 93.5799627237416 5.8977774788674715
    vertex -204.10693600392904 93.95155588552932 5.771638597533584
    vertex -204.106936003929 93.5799627237416 5.89777747886693
  endloop
endfacet
facet normal -1.7332221715033999e-13 -0.195090322016114 -0.9807852804032332
  outer loop
    vertex -204.106936003929 93.5799627237416 5.89777747886693
    vertex -207.10693600392918 93.19508416509416 5.974334584121686
    vertex -207.10693600392918 93.5799627237416 5.8977774788674715
  endloop
endfacet
facet normal -1.7332221715033999e-13 -0.195090322016114 -0.9807852804032332
  outer loop
    vertex -207.10693600392918 93.19508416509416 5.974334584121686
    vertex -204.106936003929 93.5799627237416 5.89777747886693
    vertex -204.106936003929 93.19508416509416 5.974334584121167
  endloop
endfacet
facet normal 7.740571313243436e-14 -0.5139939589912463 0.8577938039648602
  outer loop
    vertex -204.1069360039288 84.71838624275524 7.03390073036966
    vertex -207.10693600392878 85.09407052053854 7.259012462788688
    vertex -207.1069360039288 84.71838624275524 7.033900730369931
  endloop
endfacet
facet normal 7.740571313243436e-14 -0.5139939589912463 0.8577938039648602
  outer loop
    vertex -207.10693600392878 85.09407052053854 7.259012462788688
    vertex -204.1069360039288 84.71838624275524 7.03390073036966
    vertex -204.10693600392878 85.09407052053854 7.259012462788417
  endloop
endfacet
facet normal 8.018305116721649e-14 -0.3745686083181064 0.927199200637402
  outer loop
    vertex -204.10693600392872 85.5150682296704 7.466476623573836
    vertex -207.1069360039287 85.96520066428728 7.648320481374422
    vertex -207.10693600392872 85.5150682296704 7.466476623574085
  endloop
endfacet
facet normal 8.018305116721649e-14 -0.3745686083181064 0.927199200637402
  outer loop
    vertex -207.1069360039287 85.96520066428728 7.648320481374422
    vertex -204.10693600392872 85.5150682296704 7.466476623573836
    vertex -204.1069360039287 85.96520066428728 7.648320481374151
  endloop
endfacet
facet normal 6.212708511061766e-14 0.23519884248507997 0.9719472745440869
  outer loop
    vertex -207.10693600392864 93.73363312036736 7.908447782964038
    vertex -204.1069360039287 94.19188828423836 7.797555878713355
    vertex -207.1069360039287 94.19188828423836 7.797555878713558
  endloop
endfacet
facet normal 6.212708511061766e-14 0.23519884248507997 0.9719472745440869
  outer loop
    vertex -204.1069360039287 94.19188828423836 7.797555878713355
    vertex -207.10693600392864 93.73363312036736 7.908447782964038
    vertex -204.10693600392864 93.73363312036736 7.908447782963858
  endloop
endfacet
facet normal 8.170716978876435e-14 -0.1559183628542321 0.9877699449390309
  outer loop
    vertex -204.10693600392864 86.88322149610457 7.908447782963835
    vertex -207.10693600392864 87.31583086757034 7.976734680434429
    vertex -207.10693600392864 86.88322149610457 7.908447782964084
  endloop
endfacet
facet normal 8.170716978876435e-14 -0.1559183628542321 0.9877699449390309
  outer loop
    vertex -207.10693600392864 87.31583086757034 7.976734680434429
    vertex -204.10693600392864 86.88322149610457 7.908447782963835
    vertex -204.10693600392864 87.31583086757034 7.9767346804341805
  endloop
endfacet
facet normal -3.4476730899114457e-14 0.9807852804032355 -0.19509032201610296
  outer loop
    vertex -207.10693600392963 84.88366514624146 3.391578576660412
    vertex -204.1069360039294 84.96022225149567 3.776457135307282
    vertex -204.10693600392946 84.88366514624146 3.391578576659893
  endloop
endfacet
facet normal -3.4476730899114457e-14 0.9807852804032355 -0.19509032201610296
  outer loop
    vertex -204.1069360039294 84.96022225149567 3.776457135307282
    vertex -207.10693600392963 84.88366514624146 3.391578576660412
    vertex -207.10693600392955 84.96022225149567 3.776457135307824
  endloop
endfacet
facet normal -1.3003530754113403e-13 -0.6593458151000541 -0.7518398074789904
  outer loop
    vertex -204.10693600392918 94.9248259319937 5.121320343559373
    vertex -207.10693600392926 94.62978987546019 5.380060020873957
    vertex -207.10693600392932 94.9248259319937 5.1213203435598915
  endloop
endfacet
facet normal -1.3003530754113403e-13 -0.6593458151000541 -0.7518398074789904
  outer loop
    vertex -207.10693600392926 94.62978987546019 5.380060020873957
    vertex -204.10693600392918 94.9248259319937 5.121320343559373
    vertex -204.10693600392915 94.62978987546019 5.380060020873438
  endloop
endfacet
facet normal 6.756395286347969e-14 0.058393109037345126 0.9982936666216775
  outer loop
    vertex -204.10693600392864 92.90486155852675 7.999792343950308
    vertex -207.10693600392864 93.29905737777182 7.976734680434384
    vertex -207.10693600392864 92.90486155852675 7.999792343950511
  endloop
endfacet
facet normal 6.756395286347969e-14 0.058393109037345126 0.9982936666216775
  outer loop
    vertex -207.10693600392864 93.29905737777182 7.976734680434384
    vertex -204.10693600392864 92.90486155852675 7.999792343950308
    vertex -204.10693600392864 93.29905737777182 7.9767346804341805
  endloop
endfacet
facet normal 6.559975790586732e-14 0.37284692168718603 0.9278928671934006
  outer loop
    vertex -207.1069360039287 94.65621238042961 7.648320481374354
    vertex -204.10693600392872 95.10876169432046 7.466476623573814
    vertex -207.10693600392872 95.1087616943205 7.466476623574017
  endloop
endfacet
facet normal 6.559975790586732e-14 0.37284692168718603 0.9278928671934006
  outer loop
    vertex -204.10693600392872 95.10876169432046 7.466476623573814
    vertex -207.1069360039287 94.65621238042961 7.648320481374354
    vertex -204.1069360039287 94.65621238042961 7.648320481374151
  endloop
endfacet
facet normal -1.1403652730652867e-13 0.7518398074789368 -0.6593458151001151
  outer loop
    vertex -207.10693600392935 85.47793970948914 4.826284287026419
    vertex -204.10693600392918 85.73667938680322 5.121320343559373
    vertex -204.10693600392923 85.47793970948914 4.8262842870259
  endloop
endfacet
facet normal -1.1403652730652867e-13 0.7518398074789368 -0.6593458151001151
  outer loop
    vertex -204.10693600392918 85.73667938680322 5.121320343559373
    vertex -207.10693600392935 85.47793970948914 4.826284287026419
    vertex -207.10693600392932 85.73667938680322 5.1213203435598915
  endloop
endfacet
facet normal -1.7258727308069386e-13 -0.06540312923016423 -0.9978589232386023
  outer loop
    vertex -204.106936003929 93.19508416509416 5.974334584121167
    vertex -207.10693600392918 92.80350558843405 6.000000000000261
    vertex -207.10693600392918 93.19508416509416 5.974334584121686
  endloop
endfacet
facet normal -1.7258727308069386e-13 -0.06540312923016423 -0.9978589232386023
  outer loop
    vertex -207.10693600392918 92.80350558843405 6.000000000000261
    vertex -204.106936003929 93.19508416509416 5.974334584121167
    vertex -204.106936003929 92.80350558843405 5.999999999999742
  endloop
endfacet
facet normal -9.81776299626919e-14 0.831469612302603 -0.5555702330195161
  outer loop
    vertex -207.1069360039294 85.25992351900956 4.500000000000264
    vertex -204.10693600392923 85.47793970948914 4.8262842870259
    vertex -204.10693600392926 85.25992351900956 4.499999999999723
  endloop
endfacet
facet normal -9.81776299626919e-14 0.831469612302603 -0.5555702330195161
  outer loop
    vertex -204.10693600392923 85.47793970948914 4.8262842870259
    vertex -207.1069360039294 85.25992351900956 4.500000000000264
    vertex -207.10693600392935 85.47793970948914 4.826284287026419
  endloop
endfacet
facet normal -1.7332221715033928e-13 0.1950903220161361 -0.980785280403229
  outer loop
    vertex -204.106936003929 87.4664211537027 5.974334584121167
    vertex -207.10693600392918 87.08154259505531 5.8977774788674715
    vertex -207.10693600392918 87.4664211537027 5.974334584121686
  endloop
endfacet
facet normal -1.7332221715033928e-13 0.1950903220161361 -0.980785280403229
  outer loop
    vertex -207.10693600392918 87.08154259505531 5.8977774788674715
    vertex -204.106936003929 87.4664211537027 5.974334584121167
    vertex -204.106936003929 87.08154259505531 5.89777747886693
  endloop
endfacet
facet normal 6.408357015985187e-14 0.4400260848947867 0.8979849913067401
  outer loop
    vertex -207.10693600392872 95.1087616943205 7.466476623574017
    vertex -204.10693600392878 95.53214500957077 7.2590124627883945
    vertex -207.10693600392878 95.53214500957077 7.259012462788597
  endloop
endfacet
facet normal 6.408357015985187e-14 0.4400260848947867 0.8979849913067401
  outer loop
    vertex -204.10693600392878 95.53214500957077 7.2590124627883945
    vertex -207.10693600392872 95.1087616943205 7.466476623574017
    vertex -204.10693600392872 95.10876169432046 7.466476623573814
  endloop
endfacet
facet normal 7.998191515351138e-14 -0.3074005125568999 0.9515802251411888
  outer loop
    vertex -204.1069360039287 85.96520066428728 7.648320481374151
    vertex -207.1069360039287 86.42716948736393 7.797555878713603
    vertex -207.1069360039287 85.96520066428728 7.648320481374422
  endloop
endfacet
facet normal 7.998191515351138e-14 -0.3074005125568999 0.9515802251411888
  outer loop
    vertex -207.1069360039287 86.42716948736393 7.797555878713603
    vertex -204.1069360039287 85.96520066428728 7.648320481374151
    vertex -204.1069360039287 86.42716948736388 7.797555878713355
  endloop
endfacet
facet normal -5.801266292171092e-14 0.9469301294951052 -0.32143946530316275
  outer loop
    vertex -207.10693600392955 84.96022225149567 3.776457135307824
    vertex -204.10693600392932 85.08636113282901 4.148050297094993
    vertex -204.1069360039294 84.96022225149567 3.776457135307282
  endloop
endfacet
facet normal -5.801266292171092e-14 0.9469301294951052 -0.32143946530316275
  outer loop
    vertex -204.10693600392932 85.08636113282901 4.148050297094993
    vertex -207.10693600392955 84.96022225149567 3.776457135307824
    vertex -207.1069360039295 85.08636113282901 4.1480502970955335
  endloop
endfacet
facet normal -5.680535399934193e-14 -0.9469301294951025 -0.3214394653031715
  outer loop
    vertex -204.10693600392932 95.5751441859679 4.148050297094993
    vertex -207.10693600392955 95.70128306730125 3.776457135307824
    vertex -204.1069360039294 95.70128306730125 3.7764571353073046
  endloop
endfacet
facet normal -5.680535399934193e-14 -0.9469301294951025 -0.3214394653031715
  outer loop
    vertex -207.10693600392955 95.70128306730125 3.776457135307824
    vertex -204.10693600392932 95.5751441859679 4.148050297094993
    vertex -207.1069360039295 95.5751441859679 4.1480502970955335
  endloop
endfacet
facet normal -1.4381117045919767e-13 -0.5555702330195824 -0.8314696123025587
  outer loop
    vertex -204.10693600392915 94.62978987546019 5.380060020873438
    vertex -207.10693600392923 94.30350558843402 5.598076211353567
    vertex -207.10693600392926 94.62978987546019 5.380060020873957
  endloop
endfacet
facet normal -1.4381117045919767e-13 -0.5555702330195824 -0.8314696123025587
  outer loop
    vertex -207.10693600392923 94.30350558843402 5.598076211353567
    vertex -204.10693600392915 94.62978987546019 5.380060020873438
    vertex -204.1069360039291 94.30350558843402 5.598076211353049
  endloop
endfacet
facet normal 6.31444199126712e-14 0.15522990010350493 0.9878783721257673
  outer loop
    vertex -204.10693600392864 93.29905737777182 7.9767346804341805
    vertex -207.10693600392864 93.73363312036736 7.908447782964038
    vertex -207.10693600392864 93.29905737777182 7.976734680434384
  endloop
endfacet
facet normal 6.31444199126712e-14 0.15522990010350493 0.9878783721257673
  outer loop
    vertex -207.10693600392864 93.73363312036736 7.908447782964038
    vertex -204.10693600392864 93.29905737777182 7.9767346804341805
    vertex -204.10693600392864 93.73363312036736 7.908447782963858
  endloop
endfacet
facet normal 5.814457804111916e-14 0.5117244014588894 0.8591496592279727
  outer loop
    vertex -207.10693600392878 95.53214500957077 7.259012462788597
    vertex -204.1069360039288 95.9100919428114 7.033900730369638
    vertex -207.1069360039288 95.9100919428114 7.03390073036984
  endloop
endfacet
facet normal 5.814457804111916e-14 0.5117244014588894 0.8591496592279727
  outer loop
    vertex -204.1069360039288 95.9100919428114 7.033900730369638
    vertex -207.10693600392878 95.53214500957077 7.259012462788597
    vertex -204.10693600392878 95.53214500957077 7.2590124627883945
  endloop
endfacet
facet normal 3.498041420262583e-14 -0.6309692644493371 0.7758078288598682
  outer loop
    vertex -204.1069360039295 79.73042064691937 3.000000000000519
    vertex -207.10693600392887 84.40245273242967 6.799792343950581
    vertex -207.10693600392958 79.73042064691937 3.0000000000005187
  endloop
endfacet
facet normal 3.498041420262583e-14 -0.6309692644493371 0.7758078288598682
  outer loop
    vertex -207.10693600392887 84.40245273242967 6.799792343950581
    vertex -204.1069360039295 79.73042064691937 3.000000000000519
    vertex -204.10693600392887 84.40245273242967 6.79979234395031
  endloop
endfacet
facet normal -1.1557370408215272e-14 -0.9978589232386025 -0.06540312923015858
  outer loop
    vertex -204.10693600392946 95.77784017255546 3.391578576659893
    vertex -207.10693600392966 95.80350558843404 3.0000000000002665
    vertex -204.10693600392955 95.80350558843404 2.999999999999725
  endloop
endfacet
facet normal -1.1557370408215272e-14 -0.9978589232386025 -0.06540312923015858
  outer loop
    vertex -207.10693600392966 95.80350558843404 3.0000000000002665
    vertex -204.10693600392946 95.77784017255546 3.391578576659893
    vertex -207.10693600392963 95.77784017255546 3.391578576660412
  endloop
endfacet
facet normal 6.443276444461302e-14 0.30598756085444534 0.9520355101582857
  outer loop
    vertex -204.1069360039287 94.19188828423836 7.797555878713355
    vertex -207.1069360039287 94.65621238042961 7.648320481374354
    vertex -207.1069360039287 94.19188828423836 7.797555878713558
  endloop
endfacet
facet normal 6.443276444461302e-14 0.30598756085444534 0.9520355101582857
  outer loop
    vertex -207.1069360039287 94.65621238042961 7.648320481374354
    vertex -204.1069360039287 94.19188828423836 7.797555878713355
    vertex -204.1069360039287 94.65621238042961 7.648320481374151
  endloop
endfacet
facet normal -3.3742865715484855e-14 -0.9807852804032366 -0.19509032201609747
  outer loop
    vertex -204.1069360039294 95.70128306730125 3.7764571353073046
    vertex -207.10693600392963 95.77784017255546 3.391578576660412
    vertex -204.10693600392946 95.77784017255546 3.391578576659893
  endloop
endfacet
facet normal -3.3742865715484855e-14 -0.9807852804032366 -0.19509032201609747
  outer loop
    vertex -207.10693600392963 95.77784017255546 3.391578576660412
    vertex -204.1069360039294 95.70128306730125 3.7764571353073046
    vertex -207.10693600392955 95.70128306730125 3.776457135307824
  endloop
endfacet
facet normal -1.1557370408215273e-14 0.9978589232386025 -0.06540312923015858
  outer loop
    vertex -207.10693600392966 84.85799973036288 3.0000000000002665
    vertex -204.10693600392946 84.88366514624146 3.391578576659893
    vertex -204.10693600392955 84.85799973036288 2.999999999999725
  endloop
endfacet
facet normal -1.1557370408215273e-14 0.9978589232386025 -0.06540312923015858
  outer loop
    vertex -204.10693600392946 84.88366514624146 3.391578576659893
    vertex -207.10693600392966 84.85799973036288 3.0000000000002665
    vertex -207.10693600392963 84.88366514624146 3.391578576660412
  endloop
endfacet
facet normal 8.257649078658294e-14 -0.05863831095452846 0.9982792938293373
  outer loop
    vertex -204.10693600392864 87.31583086757034 7.9767346804341805
    vertex -207.10693600392864 87.70837266622584 7.999792343950533
    vertex -207.10693600392864 87.31583086757034 7.976734680434429
  endloop
endfacet
facet normal 8.257649078658294e-14 -0.05863831095452846 0.9982792938293373
  outer loop
    vertex -207.10693600392864 87.70837266622584 7.999792343950533
    vertex -204.10693600392864 87.31583086757034 7.9767346804341805
    vertex -204.10693600392864 87.70837266622584 7.999792343950285
  endloop
endfacet
facet normal 7.152199563634891e-14 0.6285119237236058 0.7777999496896695
  outer loop
    vertex -207.10693600392887 96.22807820535313 6.79979234395049
    vertex -204.10693600392946 100.93042064691936 2.9999999999996443
    vertex -207.10693600392958 100.93042064691936 2.9999999999999933
  endloop
endfacet
facet normal 7.152199563634891e-14 0.6285119237236058 0.7777999496896695
  outer loop
    vertex -204.10693600392946 100.93042064691936 2.9999999999996443
    vertex -207.10693600392887 96.22807820535313 6.79979234395049
    vertex -204.10693600392887 96.22807820535313 6.799792343950287
  endloop
endfacet
facet normal 5.450101110315983e-14 0.5928751855182763 0.8052943650595538
  outer loop
    vertex -207.1069360039288 95.9100919428114 7.03390073036984
    vertex -204.10693600392887 96.22807820535313 6.799792343950287
    vertex -207.10693600392887 96.22807820535313 6.79979234395049
  endloop
endfacet
facet normal 5.450101110315983e-14 0.5928751855182763 0.8052943650595538
  outer loop
    vertex -204.10693600392887 96.22807820535313 6.799792343950287
    vertex -207.1069360039288 95.9100919428114 7.03390073036984
    vertex -204.1069360039288 95.9100919428114 7.033900730369638
  endloop
endfacet
facet normal 1.0 7.388778798980545e-16 -1.4993909330892515e-13
  outer loop
    vertex -204.10693600392946 100.93042064691936 1.001563394717092
    vertex -204.1069360039295 79.73042064691937 3.000000000000519
    vertex -204.1069360039295 79.73042064691933 0.9999999999997287
  endloop
endfacet
facet normal 1.0 7.388778798980545e-16 -1.4993909330892515e-13
  outer loop
    vertex -204.1069360039295 79.73042064691937 3.000000000000519
    vertex -204.10693600392946 100.93042064691936 1.001563394717092
    vertex -204.10693600392955 84.85799973036288 2.999999999999725
  endloop
endfacet
facet normal 1.0 7.388778798980545e-16 -1.4993909330892515e-13
  outer loop
    vertex -204.1069360039295 79.73042064691937 3.000000000000519
    vertex -204.10693600392955 84.85799973036288 2.999999999999725
    vertex -204.10693600392887 84.40245273242967 6.79979234395031
  endloop
endfacet
facet normal 1.0 7.388778798980545e-16 -1.4993909330892515e-13
  outer loop
    vertex -204.10693600392887 84.40245273242967 6.79979234395031
    vertex -204.10693600392955 84.85799973036288 2.999999999999725
    vertex -204.1069360039288 84.71838624275524 7.03390073036966
  endloop
endfacet
facet normal 1.0 7.388778798980545e-16 -1.4993909330892515e-13
  outer loop
    vertex -204.10693600392955 84.85799973036288 2.999999999999725
    vertex -204.10693600392946 100.93042064691936 1.001563394717092
    vertex -204.10693600392955 95.80350558843404 2.999999999999725
  endloop
endfacet
facet normal 1.0 7.388778798980545e-16 -1.4993909330892515e-13
  outer loop
    vertex -204.10693600392955 95.80350558843404 2.999999999999725
    vertex -204.10693600392946 100.93042064691936 1.001563394717092
    vertex -204.1069360039288 95.9100919428114 7.033900730369638
  endloop
endfacet
facet normal 1.0 7.388778798980545e-16 -1.4993909330892515e-13
  outer loop
    vertex -204.1069360039288 95.9100919428114 7.033900730369638
    vertex -204.10693600392946 100.93042064691936 1.001563394717092
    vertex -204.10693600392887 96.22807820535313 6.799792343950287
  endloop
endfacet
facet normal 1.0 7.388778798980545e-16 -1.4993909330892515e-13
  outer loop
    vertex -204.10693600392887 96.22807820535313 6.799792343950287
    vertex -204.10693600392946 100.93042064691936 1.001563394717092
    vertex -204.10693600392946 100.93042064691936 2.9999999999996443
  endloop
endfacet
facet normal 1.0 7.388778798980545e-16 -1.4993909330892515e-13
  outer loop
    vertex -204.10693600392955 84.85799973036288 2.999999999999725
    vertex -204.10693600392878 85.09407052053854 7.259012462788417
    vertex -204.1069360039288 84.71838624275524 7.03390073036966
  endloop
endfacet
facet normal 1.0 7.388778798980545e-16 -1.4993909330892515e-13
  outer loop
    vertex -204.10693600392878 85.09407052053854 7.259012462788417
    vertex -204.10693600392955 84.85799973036288 2.999999999999725
    vertex -204.10693600392946 84.88366514624146 3.391578576659893
  endloop
endfacet
facet normal 1.0 7.388778798980545e-16 -1.4993909330892515e-13
  outer loop
    vertex -204.10693600392878 85.09407052053854 7.259012462788417
    vertex -204.10693600392946 84.88366514624146 3.391578576659893
    vertex -204.1069360039294 84.96022225149567 3.776457135307282
  endloop
endfacet
facet normal 1.0 7.388778798980545e-16 -1.4993909330892515e-13
  outer loop
    vertex -204.10693600392878 85.09407052053854 7.259012462788417
    vertex -204.1069360039294 84.96022225149567 3.776457135307282
    vertex -204.10693600392932 85.08636113282901 4.148050297094993
  endloop
endfacet
facet normal 1.0 7.388778798980545e-16 -1.4993909330892515e-13
  outer loop
    vertex -204.10693600392878 85.09407052053854 7.259012462788417
    vertex -204.10693600392932 85.08636113282901 4.148050297094993
    vertex -204.10693600392926 85.25992351900956 4.499999999999723
  endloop
endfacet
facet normal 1.0 7.388778798980545e-16 -1.4993909330892515e-13
  outer loop
    vertex -204.10693600392878 85.09407052053854 7.259012462788417
    vertex -204.10693600392926 85.25992351900956 4.499999999999723
    vertex -204.10693600392872 85.5150682296704 7.466476623573836
  endloop
endfacet
facet normal 1.0 7.388778798980545e-16 -1.4993909330892515e-13
  outer loop
    vertex -204.10693600392872 85.5150682296704 7.466476623573836
    vertex -204.10693600392926 85.25992351900956 4.499999999999723
    vertex -204.10693600392923 85.47793970948914 4.8262842870259
  endloop
endfacet
facet normal 1.0 7.388778798980545e-16 -1.4993909330892515e-13
  outer loop
    vertex -204.10693600392872 85.5150682296704 7.466476623573836
    vertex -204.10693600392923 85.47793970948914 4.8262842870259
    vertex -204.10693600392918 85.73667938680322 5.121320343559373
  endloop
endfacet
facet normal 1.0 7.388778798980545e-16 -1.4993909330892515e-13
  outer loop
    vertex -204.10693600392872 85.5150682296704 7.466476623573836
    vertex -204.10693600392918 85.73667938680322 5.121320343559373
    vertex -204.1069360039287 85.96520066428728 7.648320481374151
  endloop
endfacet
facet normal 1.0 7.388778798980545e-16 -1.4993909330892515e-13
  outer loop
    vertex -204.1069360039287 85.96520066428728 7.648320481374151
    vertex -204.10693600392918 85.73667938680322 5.121320343559373
    vertex -204.10693600392915 86.03171544333672 5.380060020873438
  endloop
endfacet
facet normal 1.0 7.388778798980545e-16 -1.4993909330892515e-13
  outer loop
    vertex -204.1069360039287 85.96520066428728 7.648320481374151
    vertex -204.10693600392915 86.03171544333672 5.380060020873438
    vertex -204.1069360039287 86.42716948736388 7.797555878713355
  endloop
endfacet
facet normal 1.0 7.388778798980545e-16 -1.4993909330892515e-13
  outer loop
    vertex -204.1069360039287 86.42716948736388 7.797555878713355
    vertex -204.10693600392915 86.03171544333672 5.380060020873438
    vertex -204.1069360039291 86.35799973036285 5.598076211353049
  endloop
endfacet
facet normal 1.0 7.388778798980545e-16 -1.4993909330892515e-13
  outer loop
    vertex -204.1069360039287 86.42716948736388 7.797555878713355
    vertex -204.1069360039291 86.35799973036285 5.598076211353049
    vertex -204.10693600392904 86.7099494332676 5.771638597533584
  endloop
endfacet
facet normal 1.0 7.388778798980545e-16 -1.4993909330892515e-13
  outer loop
    vertex -204.1069360039287 86.42716948736388 7.797555878713355
    vertex -204.10693600392904 86.7099494332676 5.771638597533584
    vertex -204.10693600392864 86.88322149610457 7.908447782963835
  endloop
endfacet
facet normal 1.0 7.388778798980545e-16 -1.4993909330892515e-13
  outer loop
    vertex -204.10693600392864 86.88322149610457 7.908447782963835
    vertex -204.10693600392904 86.7099494332676 5.771638597533584
    vertex -204.106936003929 87.08154259505531 5.89777747886693
  endloop
endfacet
facet normal 1.0 7.388778798980545e-16 -1.4993909330892515e-13
  outer loop
    vertex -204.10693600392864 86.88322149610457 7.908447782963835
    vertex -204.106936003929 87.08154259505531 5.89777747886693
    vertex -204.10693600392864 87.31583086757034 7.9767346804341805
  endloop
endfacet
facet normal 1.0 7.388778798980545e-16 -1.4993909330892515e-13
  outer loop
    vertex -204.10693600392864 87.31583086757034 7.9767346804341805
    vertex -204.106936003929 87.08154259505531 5.89777747886693
    vertex -204.106936003929 87.4664211537027 5.974334584121167
  endloop
endfacet
facet normal 1.0 7.388778798980545e-16 -1.4993909330892515e-13
  outer loop
    vertex -204.10693600392864 87.31583086757034 7.9767346804341805
    vertex -204.106936003929 87.4664211537027 5.974334584121167
    vertex -204.10693600392864 87.70837266622584 7.999792343950285
  endloop
endfacet
facet normal 1.0 7.388778798980545e-16 -1.4993909330892515e-13
  outer loop
    vertex -204.10693600392864 87.70837266622584 7.999792343950285
    vertex -204.106936003929 87.4664211537027 5.974334584121167
    vertex -204.106936003929 92.80350558843405 5.999999999999742
  endloop
endfacet
facet normal 1.0 7.388778798980545e-16 -1.4993909330892515e-13
  outer loop
    vertex -204.10693600392864 87.70837266622584 7.999792343950285
    vertex -204.106936003929 92.80350558843405 5.999999999999742
    vertex -204.10693600392864 92.90486155852675 7.999792343950308
  endloop
endfacet
facet normal 1.0 7.388778798980545e-16 -1.4993909330892515e-13
  outer loop
    vertex -204.10693600392864 92.90486155852675 7.999792343950308
    vertex -204.106936003929 92.80350558843405 5.999999999999742
    vertex -204.106936003929 93.19508416509416 5.974334584121167
  endloop
endfacet
facet normal 1.0 7.388778798980545e-16 -1.4993909330892515e-13
  outer loop
    vertex -204.10693600392864 92.90486155852675 7.999792343950308
    vertex -204.106936003929 93.19508416509416 5.974334584121167
    vertex -204.10693600392864 93.29905737777182 7.9767346804341805
  endloop
endfacet
facet normal 1.0 7.388778798980545e-16 -1.4993909330892515e-13
  outer loop
    vertex -204.10693600392864 93.29905737777182 7.9767346804341805
    vertex -204.106936003929 93.19508416509416 5.974334584121167
    vertex -204.106936003929 93.5799627237416 5.89777747886693
  endloop
endfacet
facet normal 1.0 7.388778798980545e-16 -1.4993909330892515e-13
  outer loop
    vertex -204.10693600392864 93.29905737777182 7.9767346804341805
    vertex -204.106936003929 93.5799627237416 5.89777747886693
    vertex -204.10693600392864 93.73363312036736 7.908447782963858
  endloop
endfacet
facet normal 1.0 7.388778798980545e-16 -1.4993909330892515e-13
  outer loop
    vertex -204.10693600392864 93.73363312036736 7.908447782963858
    vertex -204.106936003929 93.5799627237416 5.89777747886693
    vertex -204.10693600392904 93.95155588552932 5.771638597533584
  endloop
endfacet
facet normal 1.0 7.388778798980545e-16 -1.4993909330892515e-13
  outer loop
    vertex -204.10693600392864 93.73363312036736 7.908447782963858
    vertex -204.10693600392904 93.95155588552932 5.771638597533584
    vertex -204.1069360039287 94.19188828423836 7.797555878713355
  endloop
endfacet
facet normal 1.0 7.388778798980545e-16 -1.4993909330892515e-13
  outer loop
    vertex -204.1069360039287 94.19188828423836 7.797555878713355
    vertex -204.10693600392904 93.95155588552932 5.771638597533584
    vertex -204.1069360039291 94.30350558843402 5.598076211353049
  endloop
endfacet
facet normal 1.0 7.388778798980545e-16 -1.4993909330892515e-13
  outer loop
    vertex -204.1069360039287 94.19188828423836 7.797555878713355
    vertex -204.1069360039291 94.30350558843402 5.598076211353049
    vertex -204.1069360039287 94.65621238042961 7.648320481374151
  endloop
endfacet
facet normal 1.0 7.388778798980545e-16 -1.4993909330892515e-13
  outer loop
    vertex -204.1069360039287 94.65621238042961 7.648320481374151
    vertex -204.1069360039291 94.30350558843402 5.598076211353049
    vertex -204.10693600392915 94.62978987546019 5.380060020873438
  endloop
endfacet
facet normal 1.0 7.388778798980545e-16 -1.4993909330892515e-13
  outer loop
    vertex -204.1069360039287 94.65621238042961 7.648320481374151
    vertex -204.10693600392915 94.62978987546019 5.380060020873438
    vertex -204.10693600392918 94.9248259319937 5.121320343559373
  endloop
endfacet
facet normal 1.0 7.388778798980545e-16 -1.4993909330892515e-13
  outer loop
    vertex -204.1069360039287 94.65621238042961 7.648320481374151
    vertex -204.10693600392918 94.9248259319937 5.121320343559373
    vertex -204.10693600392872 95.10876169432046 7.466476623573814
  endloop
endfacet
facet normal 1.0 7.388778798980545e-16 -1.4993909330892515e-13
  outer loop
    vertex -204.10693600392872 95.10876169432046 7.466476623573814
    vertex -204.10693600392918 94.9248259319937 5.121320343559373
    vertex -204.10693600392923 95.18356560930773 4.8262842870259
  endloop
endfacet
facet normal 1.0 7.388778798980545e-16 -1.4993909330892515e-13
  outer loop
    vertex -204.10693600392872 95.10876169432046 7.466476623573814
    vertex -204.10693600392923 95.18356560930773 4.8262842870259
    vertex -204.10693600392878 95.53214500957077 7.2590124627883945
  endloop
endfacet
facet normal 1.0 7.388778798980545e-16 -1.4993909330892515e-13
  outer loop
    vertex -204.10693600392878 95.53214500957077 7.2590124627883945
    vertex -204.10693600392923 95.18356560930773 4.8262842870259
    vertex -204.10693600392926 95.40158179978734 4.499999999999745
  endloop
endfacet
facet normal 1.0 7.388778798980545e-16 -1.4993909330892515e-13
  outer loop
    vertex -204.10693600392878 95.53214500957077 7.2590124627883945
    vertex -204.10693600392926 95.40158179978734 4.499999999999745
    vertex -204.10693600392932 95.5751441859679 4.148050297094993
  endloop
endfacet
facet normal 1.0 7.388778798980545e-16 -1.4993909330892515e-13
  outer loop
    vertex -204.10693600392878 95.53214500957077 7.2590124627883945
    vertex -204.10693600392932 95.5751441859679 4.148050297094993
    vertex -204.1069360039288 95.9100919428114 7.033900730369638
  endloop
endfacet
facet normal 1.0 7.388778798980545e-16 -1.4993909330892515e-13
  outer loop
    vertex -204.1069360039288 95.9100919428114 7.033900730369638
    vertex -204.10693600392932 95.5751441859679 4.148050297094993
    vertex -204.1069360039294 95.70128306730125 3.7764571353073046
  endloop
endfacet
facet normal 1.0 7.388778798980545e-16 -1.4993909330892515e-13
  outer loop
    vertex -204.1069360039288 95.9100919428114 7.033900730369638
    vertex -204.1069360039294 95.70128306730125 3.7764571353073046
    vertex -204.10693600392946 95.77784017255546 3.391578576659893
  endloop
endfacet
facet normal 1.0 7.388778798980545e-16 -1.4993909330892515e-13
  outer loop
    vertex -204.1069360039288 95.9100919428114 7.033900730369638
    vertex -204.10693600392946 95.77784017255546 3.391578576659893
    vertex -204.10693600392955 95.80350558843404 2.999999999999725
  endloop
endfacet
facet normal -1.0 -2.3556999578517426e-16 2.139941813159352e-13
  outer loop
    vertex -207.10693600392887 84.40245273242967 6.799792343950581
    vertex -207.10693600392966 84.85799973036288 3.0000000000002665
    vertex -207.10693600392958 79.73042064691937 3.0000000000005187
  endloop
endfacet
facet normal -1.0 -2.3556999578517426e-16 2.139941813159352e-13
  outer loop
    vertex -207.10693600392966 84.85799973036288 3.0000000000002665
    vertex -207.10693600392887 84.40245273242967 6.799792343950581
    vertex -207.1069360039288 84.71838624275524 7.033900730369931
  endloop
endfacet
facet normal -1.0 -2.3556999578517426e-16 2.139941813159352e-13
  outer loop
    vertex -207.10693600392966 84.85799973036288 3.0000000000002665
    vertex -207.1069360039288 84.71838624275524 7.033900730369931
    vertex -207.10693600392878 85.09407052053854 7.259012462788688
  endloop
endfacet
facet normal -1.0 -2.3556999578517426e-16 2.139941813159352e-13
  outer loop
    vertex -207.10693600392966 84.85799973036288 3.0000000000002665
    vertex -207.10693600392878 85.09407052053854 7.259012462788688
    vertex -207.10693600392963 84.88366514624146 3.391578576660412
  endloop
endfacet
facet normal -1.0 -2.3556999578517426e-16 2.139941813159352e-13
  outer loop
    vertex -207.10693600392963 84.88366514624146 3.391578576660412
    vertex -207.10693600392878 85.09407052053854 7.259012462788688
    vertex -207.10693600392955 84.96022225149567 3.776457135307824
  endloop
endfacet
facet normal -1.0 -2.3556999578517426e-16 2.139941813159352e-13
  outer loop
    vertex -207.10693600392955 84.96022225149567 3.776457135307824
    vertex -207.10693600392878 85.09407052053854 7.259012462788688
    vertex -207.1069360039295 85.08636113282901 4.1480502970955335
  endloop
endfacet
facet normal -1.0 -2.3556999578517426e-16 2.139941813159352e-13
  outer loop
    vertex -207.1069360039295 85.08636113282901 4.1480502970955335
    vertex -207.10693600392878 85.09407052053854 7.259012462788688
    vertex -207.1069360039294 85.25992351900956 4.500000000000264
  endloop
endfacet
facet normal -1.0 -2.3556999578517426e-16 2.139941813159352e-13
  outer loop
    vertex -207.1069360039294 85.25992351900956 4.500000000000264
    vertex -207.10693600392878 85.09407052053854 7.259012462788688
    vertex -207.10693600392872 85.5150682296704 7.466476623574085
  endloop
endfacet
facet normal -1.0 -2.3556999578517426e-16 2.139941813159352e-13
  outer loop
    vertex -207.1069360039294 85.25992351900956 4.500000000000264
    vertex -207.10693600392872 85.5150682296704 7.466476623574085
    vertex -207.10693600392935 85.47793970948914 4.826284287026419
  endloop
endfacet
facet normal -1.0 -2.3556999578517426e-16 2.139941813159352e-13
  outer loop
    vertex -207.10693600392935 85.47793970948914 4.826284287026419
    vertex -207.10693600392872 85.5150682296704 7.466476623574085
    vertex -207.10693600392932 85.73667938680322 5.1213203435598915
  endloop
endfacet
facet normal -1.0 -2.3556999578517426e-16 2.139941813159352e-13
  outer loop
    vertex -207.10693600392932 85.73667938680322 5.1213203435598915
    vertex -207.10693600392872 85.5150682296704 7.466476623574085
    vertex -207.1069360039287 85.96520066428728 7.648320481374422
  endloop
endfacet
facet normal -1.0 -2.3556999578517426e-16 2.139941813159352e-13
  outer loop
    vertex -207.10693600392932 85.73667938680322 5.1213203435598915
    vertex -207.1069360039287 85.96520066428728 7.648320481374422
    vertex -207.10693600392926 86.03171544333672 5.380060020873957
  endloop
endfacet
facet normal -1.0 -2.3556999578517426e-16 2.139941813159352e-13
  outer loop
    vertex -207.10693600392926 86.03171544333672 5.380060020873957
    vertex -207.1069360039287 85.96520066428728 7.648320481374422
    vertex -207.1069360039287 86.42716948736393 7.797555878713603
  endloop
endfacet
facet normal -1.0 -2.3556999578517426e-16 2.139941813159352e-13
  outer loop
    vertex -207.10693600392926 86.03171544333672 5.380060020873957
    vertex -207.1069360039287 86.42716948736393 7.797555878713603
    vertex -207.10693600392923 86.35799973036285 5.598076211353567
  endloop
endfacet
facet normal -1.0 -2.3556999578517426e-16 2.139941813159352e-13
  outer loop
    vertex -207.10693600392923 86.35799973036285 5.598076211353567
    vertex -207.1069360039287 86.42716948736393 7.797555878713603
    vertex -207.10693600392918 86.7099494332676 5.771638597534126
  endloop
endfacet
facet normal -1.0 -2.3556999578517426e-16 2.139941813159352e-13
  outer loop
    vertex -207.10693600392918 86.7099494332676 5.771638597534126
    vertex -207.1069360039287 86.42716948736393 7.797555878713603
    vertex -207.10693600392864 86.88322149610457 7.908447782964084
  endloop
endfacet
facet normal -1.0 -2.3556999578517426e-16 2.139941813159352e-13
  outer loop
    vertex -207.10693600392918 86.7099494332676 5.771638597534126
    vertex -207.10693600392864 86.88322149610457 7.908447782964084
    vertex -207.10693600392918 87.08154259505531 5.8977774788674715
  endloop
endfacet
facet normal -1.0 -2.3556999578517426e-16 2.139941813159352e-13
  outer loop
    vertex -207.10693600392918 87.08154259505531 5.8977774788674715
    vertex -207.10693600392864 86.88322149610457 7.908447782964084
    vertex -207.10693600392864 87.31583086757034 7.976734680434429
  endloop
endfacet
facet normal -1.0 -2.3556999578517426e-16 2.139941813159352e-13
  outer loop
    vertex -207.10693600392918 87.08154259505531 5.8977774788674715
    vertex -207.10693600392864 87.31583086757034 7.976734680434429
    vertex -207.10693600392918 87.4664211537027 5.974334584121686
  endloop
endfacet
facet normal -1.0 -2.3556999578517426e-16 2.139941813159352e-13
  outer loop
    vertex -207.10693600392918 87.4664211537027 5.974334584121686
    vertex -207.10693600392864 87.31583086757034 7.976734680434429
    vertex -207.10693600392864 87.70837266622584 7.999792343950533
  endloop
endfacet
facet normal -1.0 -2.3556999578517426e-16 2.139941813159352e-13
  outer loop
    vertex -207.10693600392918 87.4664211537027 5.974334584121686
    vertex -207.10693600392864 87.70837266622584 7.999792343950533
    vertex -207.10693600392918 92.80350558843405 6.000000000000261
  endloop
endfacet
facet normal -1.0 -2.3556999578517426e-16 2.139941813159352e-13
  outer loop
    vertex -207.10693600392918 92.80350558843405 6.000000000000261
    vertex -207.10693600392864 87.70837266622584 7.999792343950533
    vertex -207.10693600392864 92.90486155852675 7.999792343950511
  endloop
endfacet
facet normal -1.0 -2.3556999578517426e-16 2.139941813159352e-13
  outer loop
    vertex -207.10693600392918 92.80350558843405 6.000000000000261
    vertex -207.10693600392864 92.90486155852675 7.999792343950511
    vertex -207.10693600392918 93.19508416509416 5.974334584121686
  endloop
endfacet
facet normal -1.0 -2.3556999578517426e-16 2.139941813159352e-13
  outer loop
    vertex -207.10693600392918 93.19508416509416 5.974334584121686
    vertex -207.10693600392864 92.90486155852675 7.999792343950511
    vertex -207.10693600392864 93.29905737777182 7.976734680434384
  endloop
endfacet
facet normal -1.0 -2.3556999578517426e-16 2.139941813159352e-13
  outer loop
    vertex -207.10693600392918 93.19508416509416 5.974334584121686
    vertex -207.10693600392864 93.29905737777182 7.976734680434384
    vertex -207.10693600392918 93.5799627237416 5.8977774788674715
  endloop
endfacet
facet normal -1.0 -2.3556999578517426e-16 2.139941813159352e-13
  outer loop
    vertex -207.10693600392918 93.5799627237416 5.8977774788674715
    vertex -207.10693600392864 93.29905737777182 7.976734680434384
    vertex -207.10693600392864 93.73363312036736 7.908447782964038
  endloop
endfacet
facet normal -1.0 -2.3556999578517426e-16 2.139941813159352e-13
  outer loop
    vertex -207.10693600392918 93.5799627237416 5.8977774788674715
    vertex -207.10693600392864 93.73363312036736 7.908447782964038
    vertex -207.10693600392918 93.95155588552932 5.771638597534126
  endloop
endfacet
facet normal -1.0 -2.3556999578517426e-16 2.139941813159352e-13
  outer loop
    vertex -207.10693600392918 93.95155588552932 5.771638597534126
    vertex -207.10693600392864 93.73363312036736 7.908447782964038
    vertex -207.1069360039287 94.19188828423836 7.797555878713558
  endloop
endfacet
facet normal -1.0 -2.3556999578517426e-16 2.139941813159352e-13
  outer loop
    vertex -207.10693600392918 93.95155588552932 5.771638597534126
    vertex -207.1069360039287 94.19188828423836 7.797555878713558
    vertex -207.10693600392923 94.30350558843402 5.598076211353567
  endloop
endfacet
facet normal -1.0 -2.3556999578517426e-16 2.139941813159352e-13
  outer loop
    vertex -207.10693600392923 94.30350558843402 5.598076211353567
    vertex -207.1069360039287 94.19188828423836 7.797555878713558
    vertex -207.1069360039287 94.65621238042961 7.648320481374354
  endloop
endfacet
facet normal -1.0 -2.3556999578517426e-16 2.139941813159352e-13
  outer loop
    vertex -207.10693600392923 94.30350558843402 5.598076211353567
    vertex -207.1069360039287 94.65621238042961 7.648320481374354
    vertex -207.10693600392926 94.62978987546019 5.380060020873957
  endloop
endfacet
facet normal -1.0 -2.3556999578517426e-16 2.139941813159352e-13
  outer loop
    vertex -207.10693600392926 94.62978987546019 5.380060020873957
    vertex -207.1069360039287 94.65621238042961 7.648320481374354
    vertex -207.10693600392932 94.9248259319937 5.1213203435598915
  endloop
endfacet
facet normal -1.0 -2.3556999578517426e-16 2.139941813159352e-13
  outer loop
    vertex -207.10693600392932 94.9248259319937 5.1213203435598915
    vertex -207.1069360039287 94.65621238042961 7.648320481374354
    vertex -207.10693600392872 95.1087616943205 7.466476623574017
  endloop
endfacet
facet normal -1.0 -2.3556999578517426e-16 2.139941813159352e-13
  outer loop
    vertex -207.10693600392932 94.9248259319937 5.1213203435598915
    vertex -207.10693600392872 95.1087616943205 7.466476623574017
    vertex -207.10693600392935 95.18356560930773 4.826284287026419
  endloop
endfacet
facet normal -1.0 -2.3556999578517426e-16 2.139941813159352e-13
  outer loop
    vertex -207.10693600392935 95.18356560930773 4.826284287026419
    vertex -207.10693600392872 95.1087616943205 7.466476623574017
    vertex -207.10693600392878 95.53214500957077 7.259012462788597
  endloop
endfacet
facet normal -1.0 -2.3556999578517426e-16 2.139941813159352e-13
  outer loop
    vertex -207.10693600392935 95.18356560930773 4.826284287026419
    vertex -207.10693600392878 95.53214500957077 7.259012462788597
    vertex -207.1069360039294 95.40158179978734 4.500000000000264
  endloop
endfacet
facet normal -1.0 -2.3556999578517426e-16 2.139941813159352e-13
  outer loop
    vertex -207.1069360039294 95.40158179978734 4.500000000000264
    vertex -207.10693600392878 95.53214500957077 7.259012462788597
    vertex -207.1069360039295 95.5751441859679 4.1480502970955335
  endloop
endfacet
facet normal -1.0 -2.3556999578517426e-16 2.139941813159352e-13
  outer loop
    vertex -207.1069360039295 95.5751441859679 4.1480502970955335
    vertex -207.10693600392878 95.53214500957077 7.259012462788597
    vertex -207.1069360039288 95.9100919428114 7.03390073036984
  endloop
endfacet
facet normal -1.0 -2.3556999578517426e-16 2.139941813159352e-13
  outer loop
    vertex -207.1069360039295 95.5751441859679 4.1480502970955335
    vertex -207.1069360039288 95.9100919428114 7.03390073036984
    vertex -207.10693600392955 95.70128306730125 3.776457135307824
  endloop
endfacet
facet normal -1.0 -2.3556999578517426e-16 2.139941813159352e-13
  outer loop
    vertex -207.10693600392955 95.70128306730125 3.776457135307824
    vertex -207.1069360039288 95.9100919428114 7.03390073036984
    vertex -207.10693600392963 95.77784017255546 3.391578576660412
  endloop
endfacet
facet normal -1.0 -2.3556999578517426e-16 2.139941813159352e-13
  outer loop
    vertex -207.10693600392963 95.77784017255546 3.391578576660412
    vertex -207.1069360039288 95.9100919428114 7.03390073036984
    vertex -207.10693600392966 95.80350558843404 3.0000000000002665
  endloop
endfacet
facet normal -1.0 -2.3556999578517426e-16 2.139941813159352e-13
  outer loop
    vertex -207.10693600392966 95.80350558843404 3.0000000000002665
    vertex -207.1069360039288 95.9100919428114 7.03390073036984
    vertex -207.10693600392958 100.93042064691936 2.9999999999999933
  endloop
endfacet
facet normal -1.0 -2.3556999578517426e-16 2.139941813159352e-13
  outer loop
    vertex -207.10693600392958 100.93042064691936 2.9999999999999933
    vertex -207.1069360039288 95.9100919428114 7.03390073036984
    vertex -207.10693600392887 96.22807820535313 6.79979234395049
  endloop
endfacet
facet normal 1.0 -3.168196452660057e-10 1.547929687582309e-25
  outer loop
    vertex -160.8966609969595 100.93042064691936 0.0
    vertex -160.89666100392955 78.93042064691936 0.9999999999999999
    vertex -160.89666100392955 78.93042064691936 0.0
  endloop
endfacet
facet normal 1.0 -3.168196452660057e-10 1.547929687582309e-25
  outer loop
    vertex -160.89666100392955 78.93042064691936 0.9999999999999999
    vertex -160.8966609969595 100.93042064691936 0.0
    vertex -160.8966609969595 100.93042064691936 1.0003442250423233
  endloop
endfacet
endsolid GamePi_2_v1.0
